<mxfile host="Electron" agent="Mozilla/5.0 (Windows NT 10.0; Win64; x64) AppleWebKit/537.36 (KHTML, like Gecko) draw.io/24.7.8 Chrome/128.0.6613.36 Electron/32.0.1 Safari/537.36" version="24.7.8">
  <diagram name="PÃ¡gina-1" id="62dm-v3i2AguQ4HvkB_u">
    <mxGraphModel dx="1050" dy="621" grid="1" gridSize="10" guides="1" tooltips="1" connect="1" arrows="1" fold="1" page="1" pageScale="1" pageWidth="827" pageHeight="1169" math="0" shadow="0">
      <root>
        <mxCell id="0" />
        <mxCell id="1" parent="0" />
        <mxCell id="Hbdk1c3ONhtu9bUn00SO-41" value="" style="rounded=0;whiteSpace=wrap;html=1;" vertex="1" parent="1">
          <mxGeometry x="360" y="150" width="740" height="500" as="geometry" />
        </mxCell>
        <mxCell id="Hbdk1c3ONhtu9bUn00SO-3" value="jugador" style="shape=umlActor;verticalLabelPosition=bottom;verticalAlign=top;html=1;outlineConnect=0;" vertex="1" parent="1">
          <mxGeometry x="260" y="270" width="30" height="60" as="geometry" />
        </mxCell>
        <mxCell id="Hbdk1c3ONhtu9bUn00SO-4" value="Inicio" style="ellipse;whiteSpace=wrap;html=1;" vertex="1" parent="1">
          <mxGeometry x="407" y="180" width="106" height="50" as="geometry" />
        </mxCell>
        <mxCell id="Hbdk1c3ONhtu9bUn00SO-5" value="logearse" style="ellipse;whiteSpace=wrap;html=1;" vertex="1" parent="1">
          <mxGeometry x="403.5" y="290" width="113" height="50" as="geometry" />
        </mxCell>
        <mxCell id="Hbdk1c3ONhtu9bUn00SO-7" value="" style="endArrow=classic;html=1;rounded=0;" edge="1" parent="1" source="Hbdk1c3ONhtu9bUn00SO-4" target="Hbdk1c3ONhtu9bUn00SO-5">
          <mxGeometry width="50" height="50" relative="1" as="geometry">
            <mxPoint x="330" y="280" as="sourcePoint" />
            <mxPoint x="380" y="230" as="targetPoint" />
          </mxGeometry>
        </mxCell>
        <mxCell id="Hbdk1c3ONhtu9bUn00SO-8" value="&amp;lt;&amp;lt;include&amp;gt;&amp;gt;" style="edgeLabel;html=1;align=center;verticalAlign=middle;resizable=0;points=[];" vertex="1" connectable="0" parent="Hbdk1c3ONhtu9bUn00SO-7">
          <mxGeometry x="-0.2196" relative="1" as="geometry">
            <mxPoint as="offset" />
          </mxGeometry>
        </mxCell>
        <mxCell id="Hbdk1c3ONhtu9bUn00SO-9" value="iniciar sesion" style="ellipse;whiteSpace=wrap;html=1;" vertex="1" parent="1">
          <mxGeometry x="570" y="240" width="100" height="50" as="geometry" />
        </mxCell>
        <mxCell id="Hbdk1c3ONhtu9bUn00SO-10" value="crear cuenta" style="ellipse;whiteSpace=wrap;html=1;" vertex="1" parent="1">
          <mxGeometry x="580" y="335" width="100" height="50" as="geometry" />
        </mxCell>
        <mxCell id="Hbdk1c3ONhtu9bUn00SO-11" value="" style="endArrow=classic;html=1;rounded=0;" edge="1" parent="1" source="Hbdk1c3ONhtu9bUn00SO-10" target="Hbdk1c3ONhtu9bUn00SO-5">
          <mxGeometry width="50" height="50" relative="1" as="geometry">
            <mxPoint x="400" y="390" as="sourcePoint" />
            <mxPoint x="450" y="340" as="targetPoint" />
          </mxGeometry>
        </mxCell>
        <mxCell id="Hbdk1c3ONhtu9bUn00SO-12" value="&amp;lt;&amp;lt;extend&amp;gt;&amp;gt;" style="edgeLabel;html=1;align=center;verticalAlign=middle;resizable=0;points=[];" vertex="1" connectable="0" parent="Hbdk1c3ONhtu9bUn00SO-11">
          <mxGeometry x="-0.2363" y="-1" relative="1" as="geometry">
            <mxPoint as="offset" />
          </mxGeometry>
        </mxCell>
        <mxCell id="Hbdk1c3ONhtu9bUn00SO-13" value="" style="endArrow=classic;html=1;rounded=0;" edge="1" parent="1" source="Hbdk1c3ONhtu9bUn00SO-9" target="Hbdk1c3ONhtu9bUn00SO-5">
          <mxGeometry width="50" height="50" relative="1" as="geometry">
            <mxPoint x="510" y="290" as="sourcePoint" />
            <mxPoint x="560" y="240" as="targetPoint" />
          </mxGeometry>
        </mxCell>
        <mxCell id="Hbdk1c3ONhtu9bUn00SO-14" value="&amp;lt;&amp;lt;extend&amp;gt;&amp;gt;" style="edgeLabel;html=1;align=center;verticalAlign=middle;resizable=0;points=[];" vertex="1" connectable="0" parent="Hbdk1c3ONhtu9bUn00SO-13">
          <mxGeometry x="-0.1523" y="2" relative="1" as="geometry">
            <mxPoint as="offset" />
          </mxGeometry>
        </mxCell>
        <mxCell id="Hbdk1c3ONhtu9bUn00SO-15" value="verificar informacion&lt;div&gt;BD&lt;/div&gt;" style="ellipse;whiteSpace=wrap;html=1;" vertex="1" parent="1">
          <mxGeometry x="770" y="220" width="100" height="55" as="geometry" />
        </mxCell>
        <mxCell id="Hbdk1c3ONhtu9bUn00SO-16" value="" style="endArrow=classic;html=1;rounded=0;" edge="1" parent="1" source="Hbdk1c3ONhtu9bUn00SO-9" target="Hbdk1c3ONhtu9bUn00SO-15">
          <mxGeometry width="50" height="50" relative="1" as="geometry">
            <mxPoint x="610" y="230" as="sourcePoint" />
            <mxPoint x="660" y="180" as="targetPoint" />
          </mxGeometry>
        </mxCell>
        <mxCell id="Hbdk1c3ONhtu9bUn00SO-17" value="&amp;lt;&amp;lt;include&amp;gt;&amp;gt;" style="edgeLabel;html=1;align=center;verticalAlign=middle;resizable=0;points=[];" vertex="1" connectable="0" parent="Hbdk1c3ONhtu9bUn00SO-16">
          <mxGeometry x="-0.0208" y="2" relative="1" as="geometry">
            <mxPoint as="offset" />
          </mxGeometry>
        </mxCell>
        <mxCell id="Hbdk1c3ONhtu9bUn00SO-18" value="" style="endArrow=classic;html=1;rounded=0;" edge="1" parent="1" source="Hbdk1c3ONhtu9bUn00SO-10" target="Hbdk1c3ONhtu9bUn00SO-15">
          <mxGeometry width="50" height="50" relative="1" as="geometry">
            <mxPoint x="700" y="360" as="sourcePoint" />
            <mxPoint x="750" y="310" as="targetPoint" />
          </mxGeometry>
        </mxCell>
        <mxCell id="Hbdk1c3ONhtu9bUn00SO-19" value="&amp;lt;&amp;lt;include&amp;gt;&amp;gt;" style="edgeLabel;html=1;align=center;verticalAlign=middle;resizable=0;points=[];" vertex="1" connectable="0" parent="Hbdk1c3ONhtu9bUn00SO-18">
          <mxGeometry x="-0.0019" y="2" relative="1" as="geometry">
            <mxPoint as="offset" />
          </mxGeometry>
        </mxCell>
        <mxCell id="Hbdk1c3ONhtu9bUn00SO-21" value="iniciar menu" style="ellipse;whiteSpace=wrap;html=1;" vertex="1" parent="1">
          <mxGeometry x="770" y="365" width="100" height="50" as="geometry" />
        </mxCell>
        <mxCell id="Hbdk1c3ONhtu9bUn00SO-23" value="" style="endArrow=classic;html=1;rounded=0;" edge="1" parent="1" source="Hbdk1c3ONhtu9bUn00SO-15" target="Hbdk1c3ONhtu9bUn00SO-21">
          <mxGeometry width="50" height="50" relative="1" as="geometry">
            <mxPoint x="679" y="271" as="sourcePoint" />
            <mxPoint x="781" y="262" as="targetPoint" />
          </mxGeometry>
        </mxCell>
        <mxCell id="Hbdk1c3ONhtu9bUn00SO-24" value="&amp;lt;&amp;lt;include&amp;gt;&amp;gt;" style="edgeLabel;html=1;align=center;verticalAlign=middle;resizable=0;points=[];" vertex="1" connectable="0" parent="Hbdk1c3ONhtu9bUn00SO-23">
          <mxGeometry x="-0.0208" y="2" relative="1" as="geometry">
            <mxPoint as="offset" />
          </mxGeometry>
        </mxCell>
        <mxCell id="Hbdk1c3ONhtu9bUn00SO-25" value="" style="endArrow=none;html=1;rounded=0;" edge="1" parent="1" source="Hbdk1c3ONhtu9bUn00SO-3" target="Hbdk1c3ONhtu9bUn00SO-4">
          <mxGeometry width="50" height="50" relative="1" as="geometry">
            <mxPoint x="280" y="300" as="sourcePoint" />
            <mxPoint x="330" y="250" as="targetPoint" />
          </mxGeometry>
        </mxCell>
        <mxCell id="Hbdk1c3ONhtu9bUn00SO-26" value="iniciar juego" style="ellipse;whiteSpace=wrap;html=1;" vertex="1" parent="1">
          <mxGeometry x="580" y="490" width="100" height="50" as="geometry" />
        </mxCell>
        <mxCell id="Hbdk1c3ONhtu9bUn00SO-27" value="salir" style="ellipse;whiteSpace=wrap;html=1;" vertex="1" parent="1">
          <mxGeometry x="480" y="440" width="110" height="50" as="geometry" />
        </mxCell>
        <mxCell id="Hbdk1c3ONhtu9bUn00SO-28" value="ver top" style="ellipse;whiteSpace=wrap;html=1;" vertex="1" parent="1">
          <mxGeometry x="760" y="490" width="110" height="50" as="geometry" />
        </mxCell>
        <mxCell id="Hbdk1c3ONhtu9bUn00SO-29" value="" style="endArrow=classic;html=1;rounded=0;" edge="1" parent="1" source="Hbdk1c3ONhtu9bUn00SO-27" target="Hbdk1c3ONhtu9bUn00SO-21">
          <mxGeometry width="50" height="50" relative="1" as="geometry">
            <mxPoint x="596" y="358" as="sourcePoint" />
            <mxPoint x="518" y="338" as="targetPoint" />
          </mxGeometry>
        </mxCell>
        <mxCell id="Hbdk1c3ONhtu9bUn00SO-30" value="&amp;lt;&amp;lt;extend&amp;gt;&amp;gt;" style="edgeLabel;html=1;align=center;verticalAlign=middle;resizable=0;points=[];" vertex="1" connectable="0" parent="Hbdk1c3ONhtu9bUn00SO-29">
          <mxGeometry x="-0.2363" y="-1" relative="1" as="geometry">
            <mxPoint as="offset" />
          </mxGeometry>
        </mxCell>
        <mxCell id="Hbdk1c3ONhtu9bUn00SO-31" value="" style="endArrow=classic;html=1;rounded=0;" edge="1" parent="1" source="Hbdk1c3ONhtu9bUn00SO-26" target="Hbdk1c3ONhtu9bUn00SO-21">
          <mxGeometry width="50" height="50" relative="1" as="geometry">
            <mxPoint x="596" y="358" as="sourcePoint" />
            <mxPoint x="518" y="338" as="targetPoint" />
          </mxGeometry>
        </mxCell>
        <mxCell id="Hbdk1c3ONhtu9bUn00SO-32" value="&amp;lt;&amp;lt;extend&amp;gt;&amp;gt;" style="edgeLabel;html=1;align=center;verticalAlign=middle;resizable=0;points=[];" vertex="1" connectable="0" parent="Hbdk1c3ONhtu9bUn00SO-31">
          <mxGeometry x="-0.2363" y="-1" relative="1" as="geometry">
            <mxPoint as="offset" />
          </mxGeometry>
        </mxCell>
        <mxCell id="Hbdk1c3ONhtu9bUn00SO-33" value="" style="endArrow=classic;html=1;rounded=0;" edge="1" parent="1" source="Hbdk1c3ONhtu9bUn00SO-28" target="Hbdk1c3ONhtu9bUn00SO-21">
          <mxGeometry width="50" height="50" relative="1" as="geometry">
            <mxPoint x="596" y="358" as="sourcePoint" />
            <mxPoint x="518" y="338" as="targetPoint" />
          </mxGeometry>
        </mxCell>
        <mxCell id="Hbdk1c3ONhtu9bUn00SO-34" value="&amp;lt;&amp;lt;extend&amp;gt;&amp;gt;" style="edgeLabel;html=1;align=center;verticalAlign=middle;resizable=0;points=[];" vertex="1" connectable="0" parent="Hbdk1c3ONhtu9bUn00SO-33">
          <mxGeometry x="-0.2363" y="-1" relative="1" as="geometry">
            <mxPoint as="offset" />
          </mxGeometry>
        </mxCell>
        <mxCell id="Hbdk1c3ONhtu9bUn00SO-35" value="pedir informacion a la BD" style="ellipse;whiteSpace=wrap;html=1;" vertex="1" parent="1">
          <mxGeometry x="950" y="485" width="110" height="60" as="geometry" />
        </mxCell>
        <mxCell id="Hbdk1c3ONhtu9bUn00SO-36" value="" style="endArrow=classic;html=1;rounded=0;" edge="1" parent="1" source="Hbdk1c3ONhtu9bUn00SO-28" target="Hbdk1c3ONhtu9bUn00SO-35">
          <mxGeometry width="50" height="50" relative="1" as="geometry">
            <mxPoint x="672" y="351" as="sourcePoint" />
            <mxPoint x="796" y="278" as="targetPoint" />
          </mxGeometry>
        </mxCell>
        <mxCell id="Hbdk1c3ONhtu9bUn00SO-37" value="&amp;lt;&amp;lt;include&amp;gt;&amp;gt;" style="edgeLabel;html=1;align=center;verticalAlign=middle;resizable=0;points=[];" vertex="1" connectable="0" parent="Hbdk1c3ONhtu9bUn00SO-36">
          <mxGeometry x="-0.0019" y="2" relative="1" as="geometry">
            <mxPoint as="offset" />
          </mxGeometry>
        </mxCell>
        <mxCell id="Hbdk1c3ONhtu9bUn00SO-38" value="BD" style="shape=umlActor;verticalLabelPosition=bottom;verticalAlign=top;html=1;outlineConnect=0;" vertex="1" parent="1">
          <mxGeometry x="1150" y="280" width="30" height="60" as="geometry" />
        </mxCell>
        <mxCell id="Hbdk1c3ONhtu9bUn00SO-39" value="" style="endArrow=none;html=1;rounded=0;" edge="1" parent="1" source="Hbdk1c3ONhtu9bUn00SO-15" target="Hbdk1c3ONhtu9bUn00SO-38">
          <mxGeometry width="50" height="50" relative="1" as="geometry">
            <mxPoint x="1060" y="310" as="sourcePoint" />
            <mxPoint x="1110" y="260" as="targetPoint" />
          </mxGeometry>
        </mxCell>
        <mxCell id="Hbdk1c3ONhtu9bUn00SO-40" value="" style="endArrow=none;html=1;rounded=0;" edge="1" parent="1" source="Hbdk1c3ONhtu9bUn00SO-35" target="Hbdk1c3ONhtu9bUn00SO-38">
          <mxGeometry width="50" height="50" relative="1" as="geometry">
            <mxPoint x="960" y="380" as="sourcePoint" />
            <mxPoint x="1010" y="330" as="targetPoint" />
          </mxGeometry>
        </mxCell>
        <mxCell id="Hbdk1c3ONhtu9bUn00SO-42" value="Programa" style="text;html=1;align=center;verticalAlign=middle;whiteSpace=wrap;rounded=0;" vertex="1" parent="1">
          <mxGeometry x="700" y="150" width="60" height="30" as="geometry" />
        </mxCell>
      </root>
    </mxGraphModel>
  </diagram>
</mxfile>
